<svg contentScriptType="application/ecmascript" contentStyleType="text/css" height="313" preserveAspectRatio="none" viewBox="0 0 489 313" width="489" xmlns="http://www.w3.org/2000/svg" xmlns:xlink="http://www.w3.org/1999/xlink" zoomAndPan="magnify"><filter id="a" height="300%" width="300%" x="-1" y="-1"><feGaussianBlur result="blurOut" stdDeviation="2"/><feColorMatrix in="blurOut" result="blurOut2" type="matrix" values="0 0 0 0 0 0 0 0 0 0 0 0 0 0 0 0 0 0 .4 0"/><feOffset dx="4" dy="4" in="blurOut2" result="blurOut3"/><feBlend in="SourceGraphic" in2="blurOut3" mode="normal"/></filter><text font-family="sans-serif" font-size="18" lengthAdjust="spacing" textLength="180" x="152" y="28.708">Relationship States</text><g stroke="#a80036"><path d="m70 75.25v194.7969" stroke-dasharray="5 5"/><path d="m184 75.25v194.7969" stroke-dasharray="5 5"/><path d="m306 75.25v194.7969" stroke-dasharray="5 5"/><path d="m447 75.25v194.7969" stroke-dasharray="5 5"/><path d="m5 39.9531h127v30.2969h-127z" fill="#fff" filter="url(#a)" stroke-width="1.5"/></g><text font-family="sans-serif" font-size="14" lengthAdjust="spacing" textLength="113" x="12" y="59.9482">No Relationship</text><path d="m5 269.0469h127v30.2969h-127z" fill="#fff" filter="url(#a)" stroke="#a80036" stroke-width="1.5"/><text font-family="sans-serif" font-size="14" lengthAdjust="spacing" textLength="113" x="12" y="289.042">No Relationship</text><path d="m146 39.9531h72v30.2969h-72z" fill="#fff" filter="url(#a)" stroke="#a80036" stroke-width="1.5"/><text font-family="sans-serif" font-size="14" lengthAdjust="spacing" textLength="58" x="153" y="59.9482">Blocked</text><path d="m146 269.0469h72v30.2969h-72z" fill="#fff" filter="url(#a)" stroke="#a80036" stroke-width="1.5"/><text font-family="sans-serif" font-size="14" lengthAdjust="spacing" textLength="58" x="153" y="289.042">Blocked</text><path d="m232 39.9531h145v30.2969h-145z" fill="#fff" filter="url(#a)" stroke="#a80036" stroke-width="1.5"/><text font-family="sans-serif" font-size="14" lengthAdjust="spacing" textLength="131" x="239" y="59.9482">Invitation Pending</text><path d="m232 269.0469h145v30.2969h-145z" fill="#fff" filter="url(#a)" stroke="#a80036" stroke-width="1.5"/><text font-family="sans-serif" font-size="14" lengthAdjust="spacing" textLength="131" x="239" y="289.042">Invitation Pending</text><path d="m416 39.9531h59v30.2969h-59z" fill="#fff" filter="url(#a)" stroke="#a80036" stroke-width="1.5"/><text font-family="sans-serif" font-size="14" lengthAdjust="spacing" textLength="45" x="423" y="59.9482">Friend</text><path d="m416 269.0469h59v30.2969h-59z" fill="#fff" filter="url(#a)" stroke="#a80036" stroke-width="1.5"/><text font-family="sans-serif" font-size="14" lengthAdjust="spacing" textLength="45" x="423" y="289.042">Friend</text><path d="m172 102.3828 10 4-10 4 4-4z" fill="#a80036" stroke="#a80036"/><path d="m70.5 106.3828h107.5" stroke="#a80036"/><text font-family="sans-serif" font-size="13" lengthAdjust="spacing" textLength="40" x="77.5" y="101.3169">Blocks</text><path d="m81.5 131.5156-10 4 10 4-4-4z" fill="#a80036" stroke="#a80036"/><path d="m75.5 135.5156h107.5" stroke="#a80036"/><text font-family="sans-serif" font-size="13" lengthAdjust="spacing" textLength="57" x="87.5" y="130.4497">Unblocks</text><path d="m294.5 160.6484 10 4-10 4 4-4z" fill="#a80036" stroke="#a80036"/><path d="m70.5 164.6484h230" stroke="#a80036"/><text font-family="sans-serif" font-size="13" lengthAdjust="spacing" textLength="139" x="77.5" y="159.5825">Sends Friend Request</text><path d="m435.5 189.7813 10 4-10 4 4-4z" fill="#a80036" stroke="#a80036"/><path d="m306.5 193.7813h135" stroke="#a80036"/><text font-family="sans-serif" font-size="13" lengthAdjust="spacing" textLength="117" x="313.5" y="188.7153">Request Accepted</text><path d="m81.5 218.9141-10 4 10 4-4-4z" fill="#a80036" stroke="#a80036"/><path d="m75.5 222.9141h371" stroke="#a80036"/><text font-family="sans-serif" font-size="13" lengthAdjust="spacing" textLength="61" x="87.5" y="217.8481">Unfriends</text><path d="m195 248.0469-10 4 10 4-4-4z" fill="#a80036" stroke="#a80036"/><path d="m189 252.0469h257.5" stroke="#a80036"/><text font-family="sans-serif" font-size="13" lengthAdjust="spacing" textLength="40" x="201" y="246.981">Blocks</text></svg>