<?xml version="1.0" encoding="utf-8"?>
<!-- Generator: Adobe Illustrator 17.0.0, SVG Export Plug-In . SVG Version: 6.00 Build 0)  -->
<!DOCTYPE svg PUBLIC "-//W3C//DTD SVG 1.1//EN" "http://www.w3.org/Graphics/SVG/1.1/DTD/svg11.dtd">
<svg version="1.1" id="Layer_1" xmlns="http://www.w3.org/2000/svg" xmlns:xlink="http://www.w3.org/1999/xlink" x="0px" y="0px"
	 width="31.608px" height="51.163px" viewBox="0 0 31.608 51.163" enable-background="new 0 0 31.608 51.163" xml:space="preserve">
<g>
	<g>
		<g>
			<path fill-rule="evenodd" clip-rule="evenodd" fill="#FFFFFF" d="M11.285,29.722c-1.201,0.023-1.779-1.46-2.113-2.452
				c0.291,0.009,0.577,0.026,0.854,0.055c0.641,0.069,1.274,0.253,1.69,0.787C12.284,28.843,11.817,29.712,11.285,29.722
				 M20.323,29.722c1.2,0.023,1.778-1.46,2.112-2.452c-0.291,0.009-0.577,0.026-0.854,0.055c-0.641,0.069-1.274,0.253-1.69,0.787
				C19.323,28.843,19.79,29.712,20.323,29.722z M15.746,47.129l0.055,0.062l0.059-0.062c1.346-1.804,1.621-5.243-0.059-6.882
				C14.15,41.979,14.365,45.278,15.746,47.129z M15.73,0.05L15.804,0l0.074,0.05c1.727,1.197,2.98,2.45,4.22,4.176
				c3.964,5.517,6.535,14.38,5.721,20.951c1.88,0.81,3.351,2.157,4.343,3.826h0.005c1.593,2.683,2.237,8.109-0.031,10.927
				c-2.879-1.582-7.046-2.841-11.173-1.677l-0.827,0.358c2.218,2.969,2.229,6.937,0.205,9.906c-0.865,1.269-1.51,1.652-2.535,2.646
				c-1.04-0.912-1.737-1.468-2.539-2.646c-2.024-2.968-2.012-6.936,0.205-9.906l-0.826-0.358c-4.127-1.164-8.294,0.095-11.173,1.677
				c-2.268-2.819-1.623-8.244-0.031-10.927h0.005c0.993-1.669,2.463-3.017,4.344-3.826C4.975,18.607,7.546,9.743,11.51,4.226
				C12.75,2.5,14.003,1.247,15.73,0.05z M28.573,36.151c0.377-1.96,0.077-4.052-0.886-5.681c-0.591-0.994-1.431-1.824-2.491-2.393
				c-0.28,0.872-0.64,1.672-1.082,2.383c-1.335,2.143-4.335,2.967-6.21,1.13c-2.602-2.548-0.692-7.384,4.499-7.216l0.619,0.058
				c0.653-6.561-2.355-16.272-7.217-20.705C10.941,8.16,7.934,17.87,8.587,24.432l0.619-0.058c5.19-0.169,7.101,4.667,4.499,7.216
				c-1.876,1.837-4.875,1.013-6.21-1.13c-0.442-0.711-0.802-1.511-1.083-2.383c-1.06,0.569-1.9,1.399-2.491,2.393
				c-0.963,1.63-1.263,3.722-0.886,5.681c4.593-1.677,8.317-1.639,12.769,0.274C20.256,34.512,23.98,34.474,28.573,36.151z"/>
		</g>
	</g>
</g>
</svg>
